<?xml version="1.0" encoding="UTF-8" standalone="no"?>
<!-- Created with Inkscape (http://www.inkscape.org/) -->

<svg
   width="300mm"
   height="100mm"
   viewBox="0 0 300 100"
   version="1.1"
   id="svg797"
   inkscape:version="1.4 (e7c3feb100, 2024-10-09)"
   sodipodi:docname="LOGO-REMONTTI-2025-light.color.svg"
   xml:space="preserve"
   inkscape:export-filename="LOGO-REMONTTI-2025-light.color.png"
   inkscape:export-xdpi="96"
   inkscape:export-ydpi="96"
   xmlns:inkscape="http://www.inkscape.org/namespaces/inkscape"
   xmlns:sodipodi="http://sodipodi.sourceforge.net/DTD/sodipodi-0.dtd"
   xmlns="http://www.w3.org/2000/svg"
   xmlns:svg="http://www.w3.org/2000/svg"><sodipodi:namedview
     id="namedview799"
     pagecolor="#ffffff"
     bordercolor="#000000"
     borderopacity="0.25"
     inkscape:showpageshadow="2"
     inkscape:pageopacity="0.0"
     inkscape:pagecheckerboard="0"
     inkscape:deskcolor="#d1d1d1"
     inkscape:document-units="mm"
     showgrid="false"
     inkscape:zoom="1.5358306"
     inkscape:cx="841.23861"
     inkscape:cy="251.98092"
     inkscape:window-width="2560"
     inkscape:window-height="1011"
     inkscape:window-x="1920"
     inkscape:window-y="32"
     inkscape:window-maximized="1"
     inkscape:current-layer="layer1" /><defs
     id="defs794"><clipPath
       clipPathUnits="userSpaceOnUse"
       id="clipPath1609"><g
         inkscape:label="Clip"
         id="use1611"
         style="display:inline" /></clipPath></defs><g
     inkscape:label="Camada 1"
     inkscape:groupmode="layer"
     id="layer1"
     transform="matrix(1.0674859,0,0,1.0581831,-13.140948,-8.3943927)"><path
       style="display:inline;fill:#ffa74d;fill-opacity:1;stroke-width:0.0730408"
       d="m 286.51815,18.38183 c -7.22367,1.221998 -14.08721,3.835908 -20.46753,7.08399 -4.23717,2.135178 -8.03616,4.874536 -11.86153,7.543329 -0.97455,0.726413 -2.10961,1.363513 -2.67794,2.421625 -0.54561,0.934143 -1.14013,1.862158 -1.55714,2.845444 0.22746,0.336558 0.51544,0.725152 0.9401,0.871299 3.34735,-1.768499 6.6229,-3.659862 9.93108,-5.492397 8.66422,-4.879214 17.36131,-9.711969 25.99512,-14.634276 0.21578,-0.176716 0.60901,-0.265967 0.71421,-0.516237 -0.11138,-0.235475 -0.25098,-0.318805 -0.61043,-0.186566 -0.13532,0.02127 -0.27062,0.04252 -0.40594,0.06379 z"
       id="path3449"
       inkscape:label="bico"
       transform="matrix(0.84734228,0.01681115,-0.01388655,0.9138742,40.5889,-3.3405646)"
       sodipodi:insensitive="true" /><path
       id="path636-5-3"
       style="display:inline;opacity:1;fill:#e6e6e6;fill-opacity:1;fill-rule:nonzero;stroke:none;stroke-width:0.0317451"
       inkscape:label="PING"
       d="m 283.68493,13.970948 c -1.98897,-0.03264 -3.98281,0.192657 -6.00579,0.645827 -3.92208,0.877766 -7.86594,1.784398 -11.65084,3.09152 -14.00791,4.832126 -28.84782,3.698633 -43.30029,5.207098 -7.45915,0.778183 -13.91022,3.113191 -19.55622,6.680361 -4.25882,2.690773 -8.05966,6.083787 -11.48919,10.037764 a 43.915398,44.57805 81.696369 0 1 21.44111,-5.491371 43.915398,44.57805 81.696369 0 1 43.22189,33.453754 c 0.0543,-0.08297 0.10686,-0.167982 0.16222,-0.249953 0.0676,-0.117819 0.13077,-0.238329 0.19801,-0.356492 -1.07171,-2.771202 -0.98487,-5.832855 0.9646,-9.846341 2.57882,-5.30986 4.58714,-10.905687 7.05454,-16.27555 3.05108,-6.645419 8.10302,-11.658371 14.26778,-15.199204 4.45524,-2.560508 9.55703,-4.008545 14.37143,-5.951444 0.94048,-0.378414 1.8797,-0.759783 3.62596,-1.468935 -4.57854,-2.885519 -8.92946,-4.205228 -13.30521,-4.277034 z m 3.87147,4.603197 c -11.60457,6.483438 -24.02809,13.421657 -36.45121,20.359769 l -0.90046,-0.932063 c 0.89371,-1.365454 1.49491,-3.142 2.73399,-4.022279 4.20316,-2.9875 8.43004,-6.05125 13.02004,-8.359661 7.11959,-3.587278 14.65592,-6.228095 21.59764,-7.045766 z M 188.80638,129.8244 c -0.0337,-0.002 0.0696,0.0105 0.10451,0.0101 0.0196,-1.4e-4 0.0386,-0.001 0.0582,-0.003 -0.0542,-0.002 -0.10847,-0.005 -0.16271,-0.007 z"
       transform="matrix(0.84734228,0.01681115,-0.01388655,0.9138742,40.5889,-3.3405646)" /><path
       style="display:inline;opacity:1;fill:#ffa74d;fill-opacity:1;stroke-width:0.00972537"
       d="m 222.55722,46.120657 c -0.46131,0.166241 -0.81738,0.481426 -1.06491,0.857578 -0.188,0.290436 -0.34847,0.598617 -0.4833,0.918332 -0.007,0.02995 -0.0471,0.08578 0.0107,0.105448 0.24192,0.04992 0.48412,0.06724 0.72597,0.102154 0.29946,0.03298 0.60819,0.100445 0.89456,0.05708 0.62284,-0.0909 1.12354,-0.430881 1.46909,-0.86093 0.1731,-0.222565 0.31565,-0.472048 0.38138,-0.75133 0.0111,-0.0238 -0.0198,-0.06452 -0.0471,-0.04488 -0.52731,0.301619 -1.04103,0.620733 -1.57073,0.918614 -0.21009,0.08157 -0.44512,0.131425 -0.69124,0.131753 -0.10422,-0.0065 -0.22511,-0.0061 -0.31921,-0.07524 -0.0706,-0.07323 -0.014,-0.162385 0.0521,-0.194437 0.18951,-0.115129 0.42603,-0.173363 0.60353,-0.303953 0.10393,-0.08089 0.13664,-0.214986 0.1166,-0.349416 -0.022,-0.161527 -0.0468,-0.323264 -0.0473,-0.482283 0.003,-0.01538 -0.0121,-0.03609 -0.0303,-0.0285 z m 0.12791,-2.130388 c -1.74341,0.628253 -3.08933,1.819579 -4.02482,3.241219 -0.71062,1.09772 -1.31704,2.262483 -1.82658,3.470856 -0.0262,0.113161 -0.17833,0.324286 0.0414,0.398581 0.91428,0.188669 1.82978,0.25413 2.74388,0.386072 1.13176,0.124687 2.29857,0.379635 3.3809,0.215756 2.35405,-0.343571 4.24653,-1.628533 5.55248,-3.253925 0.65431,-0.841186 1.19302,-1.784123 1.4415,-2.839672 0.0427,-0.09002 -0.072,-0.243625 -0.17885,-0.169093 -1.99301,1.139988 -3.93449,2.346084 -5.93655,3.471928 -0.7941,0.30828 -1.68233,0.496731 -2.61259,0.497984 -0.39346,-0.02462 -0.85079,-0.023 -1.20642,-0.28439 -0.26964,-0.274506 -0.0533,-0.613625 0.19665,-0.734883 0.71625,-0.435143 1.61011,-0.655206 2.28094,-1.148795 0.39268,-0.305752 0.51644,-0.812561 0.44066,-1.320617 -0.0828,-0.61051 -0.17621,-1.221814 -0.17858,-1.822823 0.006,-0.0576 -0.0417,-0.136349 -0.11526,-0.107361 z"
       id="path2361-5"
       inkscape:label="olho"
       transform="matrix(0.84734228,0.01681115,-0.01388655,0.9138742,40.5889,-3.3405646)"
       sodipodi:insensitive="true" /><path
       d="m 30.734763,64.646164 q 0,-0.331194 0.122019,-0.575231 0.122019,-0.244038 0.313763,-0.400919 0.209175,-0.156881 0.453212,-0.226606 0.261469,-0.08716 0.505506,-0.08716 h 2.632119 q 0.435781,0 0.69725,0.261469 0.261469,0.261469 0.435781,0.662388 0.191744,0.400918 0.331194,0.888993 0.13945,0.488075 0.331194,0.941288 0.522937,-0.575231 1.028444,-1.133031 0.522937,-0.5578 1.1156,-0.993582 0.592662,-0.435781 1.289912,-0.69725 0.714681,-0.2789 1.621106,-0.2789 0.941288,0 1.6734,0.13945 0.749544,0.13945 1.411931,0.41835 0.662388,0.261469 1.307344,0.679819 0.662388,0.41835 1.429363,0.97615 0.749543,0.435781 0.749543,1.028444 0,0.383487 -0.296331,0.888994 l -1.586244,2.701843 q -0.470643,0.679819 -1.167893,0.679819 -0.348625,0 -0.784407,-0.191744 -0.749543,-0.732112 -1.53395,-1.080737 -0.766975,-0.366057 -1.760556,-0.366057 -0.679819,0 -1.202756,0.191744 -0.505506,0.191744 -0.923856,0.540369 -0.41835,0.348625 -0.784406,0.8367 -0.366057,0.488075 -0.732113,1.080737 v 12.620225 q 0,0.662388 -0.331194,1.011013 -0.313762,0.331193 -1.063306,0.331193 h -3.922031 q -1.359638,0 -1.359638,-1.342206 z"
       id="path2176"
       style="font-style:italic;font-size:34.8625px;line-height:0;font-family:Cocogoose;-inkscape-font-specification:'Cocogoose Italic';text-align:center;text-anchor:middle;clip-rule:evenodd;display:inline;opacity:1;fill:#e6e6e6;fill-rule:evenodd;stroke-width:1.51313;image-rendering:optimizeQuality;shape-rendering:geometricPrecision;text-rendering:geometricPrecision;fill-opacity:1"
       inkscape:label="r"
       transform="matrix(1.2155602,0,0,1.2493029,-2.6390914,-26.25381)" /><path
       d="m 22.253839,58.776982 q 0,-0.389658 0.178933,-0.612244 0.178934,-0.241141 0.536867,-0.241141 h 10.509184 q 1.675612,0 3.139735,0.723575 1.46413,0.705019 2.554094,1.929546 1.089958,1.224518 1.708149,2.875766 0.634443,1.632695 0.634443,3.488027 0,1.261628 -0.309079,2.411934 -0.292794,1.13175 -0.829675,2.13363 -0.536865,0.983331 -1.285175,1.799675 -0.732065,0.797795 -1.61054,1.372944 l 4.180899,8.979812 q 0.113861,0.259772 0.292794,0.612243 0.178934,0.352473 0.178934,0.612245 0,0.296882 -0.178934,0.463802 -0.162649,0.148365 -0.455509,0.148365 h -5.579955 q -0.276575,0 -0.504298,-0.185551 -0.211437,-0.185552 -0.276575,-0.50099 l -3.953138,-8.478845 h -2.635425 v 8.367553 q 0,0.797795 -0.748336,0.797795 h -4.83162 q -0.325364,0 -0.52058,-0.185552 -0.195219,-0.204107 -0.195219,-0.612243 z m 12.737908,8.237682 q 0,-0.55658 -0.178934,-1.113202 -0.178934,-0.55658 -0.504296,-1.020435 -0.325364,-0.463803 -0.780867,-0.779241 -0.455509,-0.315438 -1.00862,-0.408214 -0.455509,-0.03726 -0.862211,-0.05551 -0.390435,-0.03726 -0.862209,-0.03726 h -2.244997 v 6.809071 h 2.993333 q 0.292794,0 0.520581,-0.01825 0.227722,-0.01825 0.504297,-0.05551 0.56937,-0.07452 1.024892,-0.371103 0.455509,-0.315438 0.764601,-0.760685 0.309079,-0.463803 0.471794,-1.020434 0.162649,-0.575134 0.162649,-1.168862 z"
       id="path3446"
       inkscape:label="R"
       style="font-style:italic;font-size:34.8625px;line-height:0;font-family:Cocogoose;-inkscape-font-specification:'Cocogoose Italic';text-align:center;text-anchor:middle;clip-rule:evenodd;display:none;opacity:1;fill:#232323;fill-rule:evenodd;stroke-width:1.4369;image-rendering:optimizeQuality;shape-rendering:geometricPrecision;text-rendering:geometricPrecision;fill-opacity:1"
       transform="matrix(1.2155602,0,0,1.2493029,-2.6390914,-26.25381)" /><path
       d="m 67.006296,82.865269 q -1.53395,1.411932 -3.451387,2.213769 -1.917438,0.784406 -4.061481,0.784406 -2.388082,0 -4.514694,-0.871562 -2.126613,-0.871563 -3.730288,-2.405513 -1.603674,-1.551381 -2.544962,-3.643131 -0.941287,-2.09175 -0.941287,-4.549556 0,-1.53395 0.366056,-2.963312 0.383487,-1.446794 1.063306,-2.701844 0.69725,-1.25505 1.6734,-2.300925 0.993581,-1.063306 2.213769,-1.81285 1.220187,-0.749544 2.64955,-1.167894 1.429362,-0.41835 3.015606,-0.41835 1.446794,0 2.806431,0.383488 1.359637,0.383487 2.544962,1.080737 1.202757,0.69725 2.196338,1.6734 0.993581,0.97615 1.708262,2.144044 0.714682,1.150462 1.098169,2.475237 0.400919,1.307344 0.400919,2.701844 0,0.906425 -0.03486,1.481656 -0.01743,0.575232 -0.261468,0.923857 -0.244038,0.331193 -0.819269,0.470643 -0.5578,0.122019 -1.655969,0.122019 h -12.5505 q 0.174313,1.1156 0.69725,1.865144 0.540369,0.749544 1.237619,1.202756 0.69725,0.435781 1.481656,0.627525 0.784407,0.191744 1.481657,0.191744 0.627525,0 1.289912,-0.122019 0.662388,-0.13945 1.272481,-0.348625 0.627525,-0.226606 1.133031,-0.505506 0.522938,-0.296331 0.8367,-0.610094 0.2789,-0.226606 0.470644,-0.331194 0.209175,-0.122018 0.435781,-0.122018 0.226607,0 0.453213,0.156881 0.244037,0.156881 0.540369,0.453212 l 1.847712,2.09175 q 0.191744,0.226606 0.244038,0.41835 0.05229,0.174313 0.05229,0.366056 0,0.348625 -0.191743,0.610094 -0.191744,0.244038 -0.453213,0.435781 z M 58.621865,68.345038 q -0.679819,0 -1.324775,0.2789 -0.627525,0.261469 -1.185325,0.714682 -0.5578,0.453212 -1.011012,1.028443 -0.435782,0.575232 -0.714682,1.167894 h 8.907369 q -0.366056,-0.679819 -0.801838,-1.25505 -0.418349,-0.575231 -0.976149,-1.011012 -0.540369,-0.435782 -1.25505,-0.679819 -0.69725,-0.244038 -1.638538,-0.244038 z"
       id="path2178"
       style="font-style:italic;font-size:34.8625px;line-height:0;font-family:Cocogoose;-inkscape-font-specification:'Cocogoose Italic';text-align:center;text-anchor:middle;clip-rule:evenodd;display:inline;opacity:1;fill:#e6e6e6;fill-rule:evenodd;stroke-width:1.51313;image-rendering:optimizeQuality;shape-rendering:geometricPrecision;text-rendering:geometricPrecision;fill-opacity:1"
       inkscape:label="e"
       transform="matrix(1.2155602,0,0,1.2493029,-2.6390914,-26.25381)" /><path
       d="m 72.997469,63.533843 q 0.226607,-0.191744 0.470644,-0.244038 0.261469,-0.05229 0.488075,-0.05229 h 2.632119 q 0.313762,0 0.540369,0.122019 0.226606,0.104588 0.383487,0.296331 0.156881,0.191744 0.244038,0.435782 0.104587,0.244037 0.191743,0.505506 l 0.366057,1.53395 q 0.261468,-0.540369 0.749543,-1.1156 0.488075,-0.575231 1.237619,-1.045875 0.749544,-0.470644 1.777987,-0.766975 1.045875,-0.313763 2.440375,-0.313763 1.098169,0 1.987163,0.226607 0.906425,0.209175 1.638537,0.644956 0.749544,0.41835 1.359638,1.045875 0.610094,0.610094 1.150462,1.411931 0.331194,-0.540369 0.97615,-1.133031 0.662388,-0.592663 1.568813,-1.080738 0.906425,-0.488075 2.022025,-0.801837 1.1156,-0.313763 2.37065,-0.313763 1.987162,0 3.468817,0.766975 1.48166,0.766975 2.45781,2.09175 0.99358,1.324775 1.48166,3.102763 0.48807,1.760556 0.48807,3.76515 v 11.417468 q 0,0.662388 -0.29633,1.011013 -0.2789,0.331193 -0.90643,0.331193 h -4.02662 q -0.74954,0 -1.02844,-0.244037 -0.2789,-0.261469 -0.2789,-0.993581 v -11.52206 q 0,-0.749544 -0.244037,-1.3945 -0.226607,-0.644957 -0.644957,-1.1156 -0.41835,-0.488075 -1.028443,-0.749544 -0.592663,-0.2789 -1.324775,-0.2789 -0.662388,0 -1.25505,0.261469 -0.592663,0.261468 -1.045875,0.732112 -0.453213,0.453213 -0.732113,1.1156 -0.261469,0.644956 -0.261469,1.429363 v 11.417468 q 0,0.662388 -0.296331,1.011013 -0.2789,0.331193 -0.906425,0.331193 h -0.366056 -0.13945 -3.521112 q -0.749544,0 -1.028444,-0.244037 -0.2789,-0.261469 -0.2789,-0.993581 V 72.615524 q 0,-0.749544 -0.226606,-1.3945 -0.209175,-0.644957 -0.627525,-1.1156 -0.400919,-0.488075 -0.993582,-0.749544 -0.575231,-0.2789 -1.307343,-0.2789 -0.627525,0 -1.237619,0.261469 -0.592663,0.244037 -1.080738,0.714681 -0.470643,0.453212 -0.801837,1.098169 -0.313763,0.644956 -0.366056,1.429362 v 11.504625 q 0,0.296331 -0.122019,0.592662 -0.104588,0.296332 -0.331194,0.453213 -0.226606,0.13945 -0.435781,0.191744 -0.191744,0.05229 -0.453212,0.05229 h -3.939463 q -0.749544,0 -1.080737,-0.366056 -0.331194,-0.366056 -0.331194,-0.97615 V 64.527424 q 0,-0.331194 0.13945,-0.610094 0.156881,-0.2789 0.41835,-0.435781 z"
       id="path2180"
       style="font-style:italic;font-size:34.8625px;line-height:0;font-family:Cocogoose;-inkscape-font-specification:'Cocogoose Italic';text-align:center;text-anchor:middle;clip-rule:evenodd;display:inline;opacity:1;fill:#e6e6e6;fill-rule:evenodd;stroke-width:1.51313;image-rendering:optimizeQuality;shape-rendering:geometricPrecision;text-rendering:geometricPrecision;fill-opacity:1"
       inkscape:label="m"
       transform="matrix(1.2155602,0,0,1.2493029,-2.6390914,-26.25381)" /><path
       d="m 108.62663,74.239629 q 0,-1.603675 0.40092,-3.085331 0.41835,-1.481656 1.15047,-2.736706 0.74954,-1.272481 1.77798,-2.300925 1.04588,-1.045875 2.31836,-1.777988 1.27248,-0.732112 2.73671,-1.133031 1.48165,-0.400919 3.08533,-0.400919 2.37065,0 4.44497,0.888994 2.09175,0.871563 3.6257,2.422944 1.55138,1.53395 2.44037,3.6257 0.90643,2.074318 0.90643,4.497262 0,1.603675 -0.41835,3.085331 -0.40092,1.464225 -1.15047,2.736706 -0.73211,1.272482 -1.77798,2.318357 -1.02845,1.028443 -2.30093,1.777987 -1.27248,0.732113 -2.73671,1.133031 -1.44679,0.400919 -3.03303,0.400919 -1.60368,0 -3.08533,-0.400919 -1.46423,-0.400918 -2.73671,-1.133031 -1.27248,-0.749544 -2.31836,-1.777987 -1.02844,-1.045875 -1.77798,-2.318357 -0.73212,-1.272481 -1.15047,-2.736706 -0.40092,-1.481656 -0.40092,-3.085331 z m 6.36241,0 q 0,1.150463 0.34863,2.161475 0.36605,0.993581 1.01101,1.725694 0.66239,0.732112 1.58624,1.167893 0.94129,0.41835 2.10918,0.41835 1.13303,0 2.03946,-0.41835 0.92386,-0.435781 1.55138,-1.167893 0.64496,-0.732113 0.97615,-1.725694 0.34863,-1.011012 0.34863,-2.161475 0,-1.1156 -0.34863,-2.126612 -0.33119,-1.011013 -0.97615,-1.777988 -0.62752,-0.766975 -1.55138,-1.202756 -0.90643,-0.453213 -2.03946,-0.453213 -1.16789,0 -2.10918,0.453213 -0.92385,0.435781 -1.58624,1.202756 -0.64496,0.766975 -1.01101,1.777988 -0.34863,1.011012 -0.34863,2.126612 z"
       id="path2182"
       style="font-style:italic;font-size:34.8625px;line-height:0;font-family:Cocogoose;-inkscape-font-specification:'Cocogoose Italic';text-align:center;text-anchor:middle;clip-rule:evenodd;display:inline;opacity:1;fill:#e6e6e6;fill-opacity:1;fill-rule:evenodd;stroke-width:1.51313;image-rendering:optimizeQuality;shape-rendering:geometricPrecision;text-rendering:geometricPrecision"
       inkscape:label="o"
       transform="matrix(1.2155602,0,0,1.2493029,-2.6390914,-26.25381)" /><path
       d="m 134.71857,63.533843 q 0.22661,-0.191744 0.47064,-0.244038 0.26147,-0.05229 0.48808,-0.05229 h 2.63212 q 0.31376,0 0.54037,0.122019 0.2266,0.104588 0.38348,0.296331 0.15688,0.191744 0.24404,0.435782 0.10459,0.244037 0.19174,0.505506 l 0.36606,1.53395 q 0.26147,-0.540369 0.8367,-1.1156 0.59266,-0.575231 1.44679,-1.045875 0.87157,-0.470644 2.0046,-0.766975 1.13303,-0.313763 2.52753,-0.313763 1.98716,0 3.53854,0.766975 1.56882,0.766975 2.64955,2.09175 1.09817,1.324775 1.65597,3.102763 0.57523,1.760556 0.57523,3.76515 v 11.417468 q 0,0.662388 -0.29633,1.011013 -0.2789,0.331193 -0.90642,0.331193 h -4.02662 q -0.74955,0 -1.02845,-0.244037 -0.2789,-0.261469 -0.2789,-0.993581 V 72.789836 q 0,-0.749544 -0.34862,-1.411931 -0.33119,-0.679819 -0.88899,-1.185325 -0.5578,-0.522938 -1.27249,-0.819269 -0.69725,-0.296331 -1.42936,-0.296331 -0.62752,0 -1.28991,0.2789 -0.64496,0.2789 -1.20276,0.784406 -0.54037,0.488075 -0.92385,1.167894 -0.36606,0.662387 -0.41835,1.446794 v 11.330312 q 0,0.296331 -0.12202,0.592662 -0.10459,0.296332 -0.3312,0.453213 -0.2266,0.13945 -0.43578,0.191744 -0.19174,0.05229 -0.45321,0.05229 h -3.93946 q -0.74955,0 -1.08074,-0.366056 -0.33119,-0.366056 -0.33119,-0.97615 V 64.527424 q 0,-0.331194 0.13945,-0.610094 0.15688,-0.2789 0.41835,-0.435781 z"
       id="path2184"
       style="font-style:italic;font-size:34.8625px;line-height:0;font-family:Cocogoose;-inkscape-font-specification:'Cocogoose Italic';text-align:center;text-anchor:middle;clip-rule:evenodd;display:inline;opacity:1;fill:#e6e6e6;fill-rule:evenodd;stroke-width:1.51313;image-rendering:optimizeQuality;shape-rendering:geometricPrecision;text-rendering:geometricPrecision;fill-opacity:1"
       inkscape:label="n"
       transform="matrix(1.2155602,0,0,1.2493029,-2.6390914,-26.25381)" /><path
       id="path2186"
       style="font-style:italic;font-size:34.8625px;line-height:0;font-family:Cocogoose;-inkscape-font-specification:'Cocogoose Italic';text-align:center;text-anchor:middle;clip-rule:evenodd;display:inline;opacity:1;fill:#e6e6e6;fill-rule:evenodd;stroke-width:1.51313;image-rendering:optimizeQuality;shape-rendering:geometricPrecision;text-rendering:geometricPrecision;fill-opacity:1"
       inkscape:label="t"
       d="m 165.65311,57.021488 c -0.0465,0 -0.0987,0.0058 -0.15687,0.01737 l -3.95706,1.377014 c -0.44159,0.162691 -0.78434,0.336911 -1.02837,0.522844 -0.23242,0.174312 -0.34861,0.441806 -0.34861,0.802052 l -0.0174,3.433643 h -0.005 v 6.101222 h 0.005 l 0.0174,14.71201 c 0,0.894802 0.44732,1.342269 1.34212,1.342269 h 3.93963 c 0.45321,0 0.80758,-0.110533 1.06324,-0.331328 0.25565,-0.232416 0.38346,-0.569351 0.38346,-1.010941 l -0.014,-11.919098 h -0.003 v -2.075243 l -8.5e-4,-0.717669 h 8.5e-4 v -6.101222 h -8.5e-4 l 8.5e-4,-0.233707 v -1.000601 h 0.004 l 0.0128,-3.558977 c 0,-0.406727 -0.0755,-0.732157 -0.22659,-0.976195 -0.13946,-0.255658 -0.42411,-0.383446 -0.85408,-0.383446 z"
       transform="matrix(1.2155602,0,0,1.2493029,-2.6390914,-26.25381)" /><path
       id="path2186-2"
       style="font-style:italic;font-size:34.8625px;line-height:0;font-family:Cocogoose;-inkscape-font-specification:'Cocogoose Italic';text-align:center;text-anchor:middle;clip-rule:evenodd;display:inline;opacity:1;fill:#e6e6e6;fill-rule:evenodd;stroke-width:1.51313;image-rendering:optimizeQuality;shape-rendering:geometricPrecision;text-rendering:geometricPrecision;fill-opacity:1"
       inkscape:label="t"
       d="m 178.84837,57.081035 c -0.0465,0 -0.0987,0.0058 -0.15687,0.01737 l -3.95706,1.377014 c -0.44159,0.162691 -0.78434,0.336911 -1.02837,0.522844 -0.23242,0.174312 -0.34861,0.441806 -0.34861,0.802052 l -0.0174,3.433643 h -0.005 v 6.101222 h 0.005 l 0.0174,14.71201 c 0,0.894802 0.44732,1.342269 1.34212,1.342269 h 3.93963 c 0.45321,0 0.80758,-0.110533 1.06324,-0.331328 0.25565,-0.232416 0.38346,-0.569351 0.38346,-1.010941 l -0.014,-11.919098 h -0.003 v -2.075243 l -8.5e-4,-0.717669 h 8.5e-4 v -6.101222 h -8.5e-4 l 8.5e-4,-0.233707 V 61.99965 h 0.004 l 0.0128,-3.558977 c 0,-0.406727 -0.0755,-0.732157 -0.22659,-0.976195 -0.13946,-0.255658 -0.42411,-0.383446 -0.85408,-0.383446 z"
       transform="matrix(1.2155602,0,0,1.2493029,-2.6390914,-26.25381)" /><path
       d="m 53.386516,-216.11288 c 0,-0.44224 0.11056,-0.81538 0.331679,-1.11942 0.221119,-0.30403 0.60159,-0.47671 1.140147,-0.45605 l 5.157711,0.19786 c 3.813665,0.11874 3.940861,-0.13439 3.924961,1.30172 l -2.677117,31.04644 c -0.04513,0.52333 -0.15202,0.92593 -0.456059,1.20233 -0.290219,0.26258 -0.670268,0.39387 -1.140147,0.39387 h -4.809349 c -0.538979,0 -0.919028,-0.13129 -1.140147,-0.39387 -0.221119,-0.2764 -0.331679,-0.67718 -0.331679,-1.20233 z"
       id="path6282"
       style="font-style:italic;font-size:41.4599px;line-height:0;font-family:Cocogoose;-inkscape-font-specification:'Cocogoose Italic';text-align:center;text-anchor:middle;clip-rule:evenodd;display:inline;opacity:1;fill:#e6e6e6;fill-rule:evenodd;stroke-width:1.79948;image-rendering:optimizeQuality;shape-rendering:geometricPrecision;text-rendering:geometricPrecision;white-space:pre;inline-size:46.8849;fill-opacity:1"
       inkscape:label="-- T"
       sodipodi:nodetypes="sssccscsscss"
       transform="matrix(0,0.98429327,-1.0159573,0,2.9274394e-8,3.8785033e-7)" /><path
       d="m 23.139164,65.136121 q 0.191744,-0.191744 0.522938,-0.191744 0.348625,0 0.575231,0.226606 l 2.789,2.789 q 0.122019,0.122019 0.174313,0.261469 0.05229,0.13945 0.08716,0.2789 -0.03486,0.122019 -0.08716,0.261469 -0.03486,0.13945 -0.13945,0.2789 l -5.700019,5.734881 5.700019,5.734881 q 0.226606,0.296331 0.226606,0.540369 0,0.331193 -0.2789,0.610093 l -2.858725,2.789 q -0.209175,0.244038 -0.488075,0.244038 -0.296331,0 -0.540369,-0.244038 L 14.00519,75.298539 q -0.261469,-0.261468 -0.261469,-0.505506 0,-0.2789 0.261469,-0.540369 z"
       id="path2174"
       style="font-style:italic;font-size:34.8625px;line-height:0;font-family:Cocogoose;-inkscape-font-specification:'Cocogoose Italic';text-align:center;text-anchor:middle;clip-rule:evenodd;display:inline;opacity:1;fill:#2ca089;fill-opacity:1;fill-rule:evenodd;stroke-width:1.51313;image-rendering:optimizeQuality;shape-rendering:geometricPrecision;text-rendering:geometricPrecision"
       inkscape:label="&lt;"
       transform="matrix(1.2155602,0,0,1.9043442,-2.6390914,-75.4475)"
       sodipodi:insensitive="true" /><path
       d="m 199.38245,65.408991 q 0.19175,-0.191743 0.40092,-0.366056 0.20918,-0.174312 0.5578,-0.174312 0.24404,0 0.45321,0.191743 0.20918,0.191744 0.40092,0.366057 l 8.75049,8.733056 q 0.26147,0.261468 0.26147,0.540368 0,0.244038 -0.26147,0.505507 l -9.11654,9.151406 q -0.24404,0.244037 -0.54037,0.244037 -0.29633,0 -0.48808,-0.244037 l -2.85872,-2.789 q -0.29633,-0.296332 -0.29633,-0.610094 0,-0.261469 0.2266,-0.540369 l 5.71745,-5.734881 -5.71745,-5.734881 q -0.19174,-0.296331 -0.20917,-0.540369 0.0174,-0.296331 0.26147,-0.540368 z"
       id="path2192"
       style="font-style:italic;font-size:34.8625px;line-height:0;font-family:Cocogoose;-inkscape-font-specification:'Cocogoose Italic';text-align:center;text-anchor:middle;clip-rule:evenodd;display:inline;opacity:1;fill:#2ca089;fill-opacity:1;fill-rule:evenodd;stroke-width:1.51313;image-rendering:optimizeQuality;shape-rendering:geometricPrecision;text-rendering:geometricPrecision"
       inkscape:label="&gt;"
       transform="matrix(1.2155602,0,0,1.9043442,-2.6390914,-75.4475)"
       sodipodi:insensitive="true" /><path
       id="path2186-2-3"
       style="font-style:italic;font-size:34.8625px;line-height:0;font-family:Cocogoose;-inkscape-font-specification:'Cocogoose Italic';text-align:center;text-anchor:middle;clip-rule:evenodd;display:inline;fill:#e6e6e6;fill-opacity:1;fill-rule:evenodd;stroke-width:1.62498;image-rendering:optimizeQuality;shape-rendering:geometricPrecision;text-rendering:geometricPrecision"
       inkscape:label="t"
       d="m 230.17322,53.573093 c -0.0565,0 -0.11998,0.0055 -0.19069,0.01647 l -4.81004,1.306507 c -0.53678,0.154359 -0.95342,0.319659 -1.25005,0.496071 -0.28252,0.165386 -0.42376,0.419183 -0.42376,0.760984 l -0.0211,3.257827 h -0.006 v 5.788816 h 0.006 l 0.0211,13.958699 c 0,0.84899 0.54375,1.27354 1.63143,1.27354 h 4.78886 c 0.5509,0 0.98166,-0.10487 1.29243,-0.31436 0.31076,-0.22052 0.46612,-0.5402 0.46612,-0.95918 l -0.017,-11.308795 h -0.004 v -1.968983 l -0.001,-0.680921 h 0.001 v -5.788816 h -0.001 l 0.001,-0.22174 v -0.949366 h 0.005 l 0.0156,-3.376745 c 0,-0.3859 -0.0918,-0.694667 -0.27544,-0.926209 -0.16952,-0.242567 -0.51553,-0.363812 -1.03818,-0.363812 z" /></g></svg>
